<?xml version="1.0" encoding="UTF-8" standalone="no"?><!DOCTYPE svg PUBLIC "-//W3C//DTD SVG 1.1//EN" "http://www.w3.org/Graphics/SVG/1.1/DTD/svg11.dtd"><svg width="100%" height="100%" viewBox="0 0 30 34" version="1.1" xmlns="http://www.w3.org/2000/svg" xmlns:xlink="http://www.w3.org/1999/xlink" xml:space="preserve" xmlns:serif="http://www.serif.com/" style="fill-rule:evenodd;clip-rule:evenodd;stroke-linejoin:round;stroke-miterlimit:2;"><path d="M8.355,26.688l-5.705,-0c-1.462,-0 -2.65,-1.175 -2.65,-2.617c-0,-1.463 1.188,-2.65 2.65,-2.65l0.758,-0l0.105,-10.138c-0,-3.05 1.191,-5.904 3.362,-8.041c2.171,-2.138 5.004,-3.254 8.113,-3.242c6.112,0.1 11.083,5.238 11.083,11.458l-0,9.859l0.867,0.104c1.458,-0 2.649,1.187 2.649,2.65c0,1.442 -1.191,2.617 -2.649,2.617l-5.71,-0c0.001,0.034 0.001,0.069 0.001,0.104c0,3.566 -2.887,6.466 -6.437,6.466c-3.55,0 -6.438,-2.9 -6.438,-6.466c0,-0.035 0,-0.07 0.001,-0.104Zm2.928,0.191c0.046,1.913 1.6,3.45 3.509,3.45c1.908,0 3.466,-1.537 3.512,-3.45l-7.021,0Zm8.903,-2.786l6.752,0.049l0.099,-0.071l-0.099,-0.104l-0.763,-0c-1.462,-0 -2.65,-1.188 -2.65,-2.65l0,-9.859c0,-4.837 -3.846,-8.833 -8.579,-8.912c-2.346,-0.021 -4.604,0.858 -6.283,2.512c-1.68,1.655 -2.605,3.863 -2.605,6.225l0,10.034c0,1.462 -1.187,2.65 -2.65,2.65l-0.758,-0l6.947,0.05c0.135,-0.041 0.277,-0.063 0.424,-0.063l9.542,0c0.22,0 0.432,0.049 0.623,0.139Z" style="fill:#000004;"/></svg>