<?xml version="1.0" encoding="UTF-8" standalone="no"?><!DOCTYPE svg PUBLIC "-//W3C//DTD SVG 1.1//EN" "http://www.w3.org/Graphics/SVG/1.1/DTD/svg11.dtd"><svg width="100%" height="100%" viewBox="0 0 19 18" version="1.1" xmlns="http://www.w3.org/2000/svg" xmlns:xlink="http://www.w3.org/1999/xlink" xml:space="preserve" xmlns:serif="http://www.serif.com/" style="fill-rule:evenodd;clip-rule:evenodd;stroke-linejoin:round;stroke-miterlimit:2;"><path d="M16.717,0l-14.496,0c-1.221,0 -2.221,0.996 -2.221,2.221l0,13.016c0,1.221 1,2.217 2.221,2.217l14.496,0c1.22,0 2.216,-0.996 2.216,-2.217l0,-13.016c0,-1.225 -0.996,-2.221 -2.216,-2.221Zm0.737,15.237c0,0.409 -0.329,0.738 -0.737,0.738l-14.496,-0c-0.409,-0 -0.738,-0.329 -0.738,-0.738l0,-9.762l15.971,-0l0,9.762Zm-13.162,-2.295l-1.479,-0l-0,1.479l1.479,-0l-0,-1.479Zm2.958,-0l-1.479,-0l-0,1.479l1.479,-0l0,-1.479Zm2.958,-0l-1.479,-0l0,1.479l1.479,-0l0,-1.479Zm2.959,-0l-1.48,-0l0,1.479l1.48,-0l-0,-1.479Zm2.954,-2.959l-1.475,0l-0,1.479l1.475,0l-0,-1.479Zm-11.829,0l-1.479,0l-0,1.479l1.479,0l-0,-1.479Zm2.958,0l-1.479,0l-0,1.479l1.479,0l0,-1.479Zm2.958,0l-1.479,0l0,1.479l1.479,0l0,-1.479Zm2.959,0l-1.48,0l0,1.479l1.48,0l-0,-1.479Zm2.954,-2.958l-1.475,-0l-0,1.479l1.475,0l-0,-1.479Zm-11.829,-0l-1.479,-0l-0,1.479l1.479,0l-0,-1.479Zm2.958,-0l-1.479,-0l-0,1.479l1.479,0l0,-1.479Zm2.958,-0l-1.479,-0l0,1.479l1.479,0l0,-1.479Zm2.959,-0l-1.48,-0l0,1.479l1.48,0l-0,-1.479Zm4.287,-3.029l-15.971,-0l0,-1.775c0,-0.409 0.329,-0.742 0.738,-0.742l14.496,0c0.408,0 0.737,0.333 0.737,0.742l0,1.775Z" style="fill:#8197a1;fill-rule:nonzero;"/></svg>