<?xml version="1.0" encoding="UTF-8" standalone="no"?><!DOCTYPE svg PUBLIC "-//W3C//DTD SVG 1.1//EN" "http://www.w3.org/Graphics/SVG/1.1/DTD/svg11.dtd"><svg width="100%" height="100%" viewBox="0 0 37 36" version="1.1" xmlns="http://www.w3.org/2000/svg" xmlns:xlink="http://www.w3.org/1999/xlink" xml:space="preserve" xmlns:serif="http://www.serif.com/" style="fill-rule:evenodd;clip-rule:evenodd;stroke-linejoin:round;stroke-miterlimit:2;"><path d="M23.655,10.435l0.545,-9.225c0.046,-0.708 0.663,-1.246 1.367,-1.208c0.708,0.042 1.246,0.654 1.212,1.362l-0.537,9.071l8.77,0c0.709,0 1.292,0.579 1.292,1.288c0,0.712 -0.583,1.287 -1.292,1.287l-8.923,0l-0.536,9.054l8.239,0c0.708,0 1.283,0.579 1.283,1.292c0,0.713 -0.575,1.288 -1.283,1.288l-8.392,-0l-0.546,9.22c-0.041,0.688 -0.608,1.213 -1.287,1.213l-0.075,-0c-0.713,-0.042 -1.254,-0.654 -1.213,-1.363l0.536,-9.07l-9.048,-0l-0.546,9.22c-0.042,0.688 -0.608,1.213 -1.288,1.213l-0.075,-0c-0.712,-0.042 -1.254,-0.654 -1.212,-1.363l0.536,-9.07l-9.894,-0c-0.713,-0 -1.288,-0.575 -1.288,-1.288c-0,-0.713 0.575,-1.292 1.288,-1.292l10.046,0l0.535,-9.054l-9.361,0c-0.708,0 -1.287,-0.575 -1.287,-1.287c-0,-0.709 0.579,-1.288 1.287,-1.288l9.514,0l0.545,-9.225c0.046,-0.708 0.658,-1.246 1.366,-1.208c0.709,0.042 1.25,0.654 1.213,1.362l-0.537,9.071l9.046,0Zm-0.152,2.575l-9.047,0l-0.536,9.054l9.048,0l0.535,-9.054Z" style="fill:#000004;"/></svg>