<?xml version="1.0" encoding="UTF-8" standalone="no"?><!DOCTYPE svg PUBLIC "-//W3C//DTD SVG 1.1//EN" "http://www.w3.org/Graphics/SVG/1.1/DTD/svg11.dtd"><svg width="100%" height="100%" viewBox="0 0 37 32" version="1.1" xmlns="http://www.w3.org/2000/svg" xmlns:xlink="http://www.w3.org/1999/xlink" xml:space="preserve" xmlns:serif="http://www.serif.com/" style="fill-rule:evenodd;clip-rule:evenodd;stroke-linejoin:round;stroke-miterlimit:2;"><path d="M5.268,6.661l12.879,-6.522c0.375,-0.192 0.817,-0.184 1.192,0.016l16.408,8.834c0.625,0.337 0.859,1.116 0.521,1.745c-0.342,0.626 -1.117,0.863 -1.746,0.525l-2.383,-1.283l-0,17.263c-0,2.091 -1.696,3.791 -3.792,3.791l-20.275,0c-2.091,0 -3.792,-1.7 -3.792,-3.791l0,-17.187l-2.408,1.22l-0.583,0.142c-0.471,-0 -0.925,-0.263 -1.15,-0.709c-0.321,-0.633 -0.067,-1.408 0.567,-1.733l4.033,-2.043c0.151,-0.127 0.331,-0.22 0.529,-0.268Zm1.588,2.087l11.854,-6.005l10.854,5.846l-0,18.65c-0,0.671 -0.542,1.216 -1.217,1.216l-20.275,0c-0.671,0 -1.216,-0.545 -1.216,-1.216l-0,-18.491Zm11.354,12.474c-2.534,-0 -4.596,-2.063 -4.596,-4.596c-0,-2.537 2.062,-4.596 4.596,-4.596c2.537,0 4.595,2.059 4.595,4.596c0,2.533 -2.058,4.596 -4.595,4.596Zm-0,-6.617c-1.113,0 -2.017,0.909 -2.017,2.021c0,1.113 0.904,2.021 2.017,2.021c1.112,0 2.021,-0.908 2.021,-2.021c-0,-1.112 -0.909,-2.021 -2.021,-2.021Z" style="fill:#000004;"/></svg>