<?xml version="1.0" encoding="UTF-8" standalone="no"?><!DOCTYPE svg PUBLIC "-//W3C//DTD SVG 1.1//EN" "http://www.w3.org/Graphics/SVG/1.1/DTD/svg11.dtd"><svg width="100%" height="100%" viewBox="0 0 26 23" version="1.1" xmlns="http://www.w3.org/2000/svg" xmlns:xlink="http://www.w3.org/1999/xlink" xml:space="preserve" xmlns:serif="http://www.serif.com/" style="fill-rule:evenodd;clip-rule:evenodd;stroke-linejoin:round;stroke-miterlimit:2;"><path d="M17.746,0c-1.991,0 -3.87,0.817 -5.225,2.208c-1.358,-1.391 -3.233,-2.208 -5.229,-2.208c-3.954,0 -7.183,3.158 -7.279,7.304l-0.012,0.154c-0.009,0.363 -0.08,9.096 11.97,14.6l0.538,0.117l0.537,-0.117c10.317,-4.708 11.746,-11.854 11.938,-13.904l0.058,-0.866c0,-4.021 -3.271,-7.288 -7.296,-7.288Zm4.667,7.883c-0.154,1.696 -1.337,7.45 -9.904,11.575c-9.884,-4.758 -9.929,-11.65 -9.925,-11.941l-0.021,-0l0.021,-0.229c-0,-2.596 2.112,-4.705 4.708,-4.705c1.696,0 3.267,0.917 4.104,2.4c0.463,0.813 1.796,0.804 2.255,0c0.833,-1.483 2.404,-2.4 4.095,-2.4c2.596,0 4.709,2.109 4.709,4.705l-0.042,0.595Z" style="fill:#8197a1;fill-rule:nonzero;"/></svg>