<?xml version="1.0" encoding="UTF-8" standalone="no"?><!DOCTYPE svg PUBLIC "-//W3C//DTD SVG 1.1//EN" "http://www.w3.org/Graphics/SVG/1.1/DTD/svg11.dtd"><svg width="100%" height="100%" viewBox="0 0 15 21" version="1.1" xmlns="http://www.w3.org/2000/svg" xmlns:xlink="http://www.w3.org/1999/xlink" xml:space="preserve" xmlns:serif="http://www.serif.com/" style="fill-rule:evenodd;clip-rule:evenodd;stroke-linejoin:round;stroke-miterlimit:2;"><path d="M13.355,3.571c-1.266,-2.184 -3.516,-3.521 -6.016,-3.571l-0.321,0c-2.504,0.05 -4.754,1.387 -6.021,3.571c-1.296,2.237 -1.329,4.921 -0.096,7.183l5.175,9.475l0.008,0.008c0.23,0.396 0.638,0.634 1.092,0.634c0.458,-0 0.863,-0.238 1.092,-0.634l0.008,-0.008l5.175,-9.475c1.234,-2.262 1.2,-4.946 -0.096,-7.183Zm-1.05,6.558l-5.129,9.388l-5.129,-9.388c-1.013,-1.858 -0.988,-4.067 0.079,-5.9c1.038,-1.792 2.875,-2.883 4.917,-2.925l0.266,0c2.046,0.042 3.884,1.133 4.917,2.925c1.067,1.833 1.096,4.042 0.079,5.9Zm-5.129,-6.542c-1.621,0 -2.933,1.317 -2.933,2.934c-0,1.621 1.312,2.937 2.933,2.937c1.617,0 2.938,-1.316 2.938,-2.937c-0,-1.617 -1.321,-2.934 -2.938,-2.934Zm0,4.567c-0.9,0 -1.629,-0.733 -1.629,-1.633c-0,-0.9 0.729,-1.629 1.629,-1.629c0.9,-0 1.629,0.729 1.629,1.629c0,0.9 -0.729,1.633 -1.629,1.633Z" style="fill:#8197a1;fill-rule:nonzero;"/></svg>