<?xml version="1.0" encoding="UTF-8" standalone="no"?><!DOCTYPE svg PUBLIC "-//W3C//DTD SVG 1.1//EN" "http://www.w3.org/Graphics/SVG/1.1/DTD/svg11.dtd"><svg width="100%" height="100%" viewBox="0 0 20 21" version="1.1" xmlns="http://www.w3.org/2000/svg" xmlns:xlink="http://www.w3.org/1999/xlink" xml:space="preserve" xmlns:serif="http://www.serif.com/" style="fill-rule:evenodd;clip-rule:evenodd;stroke-linejoin:round;stroke-miterlimit:2;"><path d="M19.679,18.962l-4.929,-4.629c1.421,-1.525 2.308,-3.554 2.308,-5.8c0,-4.704 -3.825,-8.533 -8.529,-8.533c-4.7,0 -8.529,3.829 -8.529,8.533c0,4.704 3.829,8.53 8.529,8.53c1.784,-0 3.442,-0.555 4.813,-1.496l5.066,4.754l0.634,0.254l0.679,-0.296l-0.042,-1.317Zm-17.816,-10.429c-0,-3.679 2.991,-6.671 6.666,-6.671c3.679,0 6.671,2.992 6.671,6.671c0,3.675 -2.992,6.667 -6.671,6.667c-3.675,-0 -6.666,-2.992 -6.666,-6.667Z" style="fill:#8197a1;fill-rule:nonzero;"/></svg>