<svg width="20" height="20" viewBox="0 0 20 20" fill="none" xmlns="http://www.w3.org/2000/svg">
<path d="M10 6.52582C8.08418 6.52582 6.52585 8.08415 6.52585 9.99998C6.52585 11.9158 8.08418 13.4742 10 13.4742C11.9158 13.4742 13.4742 11.9158 13.4742 9.99998C13.4742 8.08415 11.9158 6.52582 10 6.52582ZM10 12.0992C8.84318 12.0992 7.90085 11.1587 7.90085 9.99998C7.90085 8.84132 8.84502 7.90082 10 7.90082C11.155 7.90082 12.0992 8.84132 12.0992 9.99998C12.0992 11.1587 11.1568 12.0992 10 12.0992Z" fill="#1DA1F2"/>
<path d="M10.33 19.5104H9.66818C8.58376 19.5104 7.69368 18.6964 7.59468 17.6184L7.58185 17.4836C7.55893 17.2206 7.3921 16.9951 7.14918 16.8933C6.88701 16.7833 6.61568 16.8337 6.41768 16.9987L6.31135 17.0876C5.51568 17.7522 4.2461 17.6954 3.50635 16.9593L3.03885 16.4918C2.27251 15.7218 2.21751 14.5173 2.91051 13.6868L3.00035 13.5786C3.17085 13.3751 3.21118 13.0992 3.11218 12.8572C3.01135 12.6079 2.78401 12.4411 2.52001 12.4172L2.38251 12.4044C1.30085 12.3063 0.487762 11.4144 0.487762 10.3309V9.66906C0.487762 8.58465 1.30176 7.69456 2.37976 7.59556L2.52276 7.58273C2.78401 7.55981 3.0086 7.39298 3.11126 7.14915C3.2121 6.90165 3.17085 6.6239 3.00126 6.4204L2.9151 6.31406C2.22118 5.48173 2.27526 4.27631 3.04068 3.50906L3.51001 3.03973C4.24701 2.30273 5.51568 2.24681 6.31501 2.9114L6.42135 3.00123C6.62118 3.1699 6.90534 3.21206 7.14551 3.11306C7.39301 3.0104 7.55985 2.7849 7.58276 2.52365L7.5956 2.3834C7.69368 1.30173 8.5856 0.489563 9.6691 0.489563H10.3309C11.4153 0.489563 12.3054 1.30356 12.4044 2.38156L12.4173 2.52456C12.4402 2.78581 12.6061 3.0104 12.8499 3.11123C13.1038 3.21848 13.3816 3.16806 13.5778 3.00398L13.6878 2.91048C14.4825 2.24773 15.7539 2.30365 16.4928 3.03881L16.9603 3.50815C17.7266 4.27631 17.7816 5.48173 17.0886 6.31315L16.9969 6.42131C16.8246 6.62298 16.7824 6.89981 16.8842 7.14365C16.9868 7.39115 17.2142 7.55615 17.4763 7.58181L17.6157 7.59465C18.6973 7.69273 19.5104 8.58465 19.5104 9.66815V10.3309C19.5104 11.4153 18.6964 12.3054 17.6184 12.4044L17.4763 12.4172C17.216 12.4392 16.9905 12.6051 16.8897 12.8481C16.7861 13.0974 16.8283 13.3742 16.9969 13.5768L17.0886 13.6868C17.7816 14.5164 17.7266 15.7218 16.9603 16.4918L16.4928 16.9593C15.753 17.6963 14.4853 17.7513 13.6878 17.0876L13.5823 16.9996C13.3834 16.8319 13.0965 16.7888 12.8582 16.8878C12.6079 16.9923 12.4411 17.2178 12.4182 17.48L12.4053 17.6175C12.3073 18.6927 11.4153 19.5058 10.3318 19.5058L10.33 19.5104ZM6.87143 15.4587C7.14643 15.4587 7.41501 15.5137 7.66893 15.6191C8.3931 15.9198 8.8826 16.5853 8.95226 17.3571L8.9651 17.4919C8.99901 17.8586 9.30151 18.1336 9.67093 18.1336H10.3328C10.6994 18.1336 11.0019 17.8586 11.0368 17.4919L11.0496 17.3562C11.1193 16.5844 11.6088 15.9198 12.3256 15.6219C13.0525 15.3194 13.8803 15.4551 14.4642 15.9427L14.5678 16.0289C14.7309 16.1646 14.9033 16.1939 15.0197 16.1939C15.2085 16.1939 15.3863 16.1206 15.5202 15.9858L15.9877 15.5183C16.248 15.258 16.2673 14.8491 16.0317 14.5668L15.94 14.4568C15.4432 13.861 15.3194 13.0451 15.6173 12.3274C15.9162 11.6032 16.5817 11.1174 17.3535 11.0468L17.4956 11.034C17.8595 11.0001 18.1373 10.6976 18.1373 10.3281V9.66631C18.1373 9.29965 17.8595 8.99715 17.4938 8.96231L17.3544 8.94948C16.5789 8.87798 15.9153 8.39031 15.6173 7.67256C15.3185 6.95023 15.4432 6.1344 15.9409 5.53948L16.0326 5.43131C16.2682 5.14715 16.2489 4.73831 15.9886 4.47798L15.5211 4.01048C15.3873 3.87573 15.2094 3.8024 15.0206 3.8024C14.9042 3.8024 14.7318 3.83173 14.5696 3.9674L14.4596 4.05906C13.8784 4.54306 13.0388 4.67323 12.3311 4.38356C11.6088 4.08381 11.1211 3.41923 11.0505 2.64556L11.0377 2.50348C11.0056 2.13956 10.7031 1.86181 10.3346 1.86181H9.67185C9.30518 1.86181 9.00268 2.13956 8.96784 2.50531L8.95501 2.64465C8.88534 3.4174 8.39768 4.08198 7.68085 4.3799C6.95943 4.67873 6.12893 4.54765 5.54501 4.05906L5.43685 3.97106C5.27185 3.83356 5.09951 3.80606 4.9831 3.80606C4.79426 3.80606 4.61643 3.8794 4.4826 4.01323L4.01326 4.48073C3.75476 4.74106 3.73551 5.1499 3.9711 5.43223L4.06276 5.5404C4.55776 6.13898 4.68335 6.95573 4.38543 7.67165C4.08568 8.39398 3.4211 8.88165 2.64835 8.95223L2.50535 8.96506C2.14143 8.99898 1.86368 9.30148 1.86368 9.6709V10.3327C1.86368 10.6994 2.14143 11.0019 2.50718 11.0367L2.64468 11.0496C3.42201 11.1211 4.0866 11.6106 4.3836 12.3292C4.68151 13.0497 4.55776 13.8646 4.06001 14.4605L3.97201 14.5659C3.73368 14.8501 3.75385 15.2589 4.01418 15.5192L4.48168 15.9867C4.61551 16.1215 4.79335 16.1948 4.98218 16.1948C5.0986 16.1948 5.27093 16.1673 5.43318 16.0298L5.53951 15.9418C5.91168 15.6338 6.3856 15.4615 6.87143 15.4615V15.4587Z" fill="#1DA1F2"/>
</svg>
