<?xml version="1.0" encoding="UTF-8" standalone="no"?><!DOCTYPE svg PUBLIC "-//W3C//DTD SVG 1.1//EN" "http://www.w3.org/Graphics/SVG/1.1/DTD/svg11.dtd"><svg width="100%" height="100%" viewBox="0 0 39 32" version="1.1" xmlns="http://www.w3.org/2000/svg" xmlns:xlink="http://www.w3.org/1999/xlink" xml:space="preserve" xmlns:serif="http://www.serif.com/" style="fill-rule:evenodd;clip-rule:evenodd;stroke-linejoin:round;stroke-miterlimit:2;"><path d="M38.675,3.721c-1.438,0.629 -2.975,1.05 -4.567,1.254c1.642,-0.983 2.896,-2.525 3.488,-4.388c-1.538,0.917 -3.225,1.563 -5.029,1.921c-1.455,-1.55 -3.534,-2.508 -5.796,-2.508c-4.383,0 -7.917,3.563 -7.917,7.933c0,0.625 0.05,1.23 0.184,1.809c-6.592,-0.321 -12.426,-3.484 -16.346,-8.296c-0.684,1.187 -1.084,2.546 -1.084,4.008c0,2.746 1.413,5.179 3.521,6.588c-1.275,-0.021 -2.525,-0.392 -3.583,-0.975l-0,0.087c-0,3.854 2.75,7.054 6.354,7.792c-0.646,0.175 -1.35,0.258 -2.079,0.258c-0.509,0 -1.021,-0.029 -1.504,-0.133c1.029,3.137 3.945,5.45 7.412,5.525c-2.7,2.108 -6.125,3.379 -9.833,3.379c-0.65,-0 -1.271,-0.029 -1.896,-0.108c3.512,2.266 7.675,3.558 12.162,3.558c14.592,-0 22.567,-12.088 22.567,-22.563l-0.029,-1.025c1.571,-1.116 2.9,-2.512 3.975,-4.116Z" style="fill:#009bdb;fill-rule:nonzero;"/></svg>