<?xml version="1.0" encoding="UTF-8" standalone="no"?><!DOCTYPE svg PUBLIC "-//W3C//DTD SVG 1.1//EN" "http://www.w3.org/Graphics/SVG/1.1/DTD/svg11.dtd"><svg width="100%" height="100%" viewBox="0 0 23 23" version="1.1" xmlns="http://www.w3.org/2000/svg" xmlns:xlink="http://www.w3.org/1999/xlink" xml:space="preserve" xmlns:serif="http://www.serif.com/" style="fill-rule:evenodd;clip-rule:evenodd;stroke-linejoin:round;stroke-miterlimit:2;"><path d="M20.883,11.688c-0.712,-0 -1.287,0.579 -1.287,1.291l-0,4.242c-0,1.325 -1.075,2.404 -2.4,2.404l-12.217,-0c-1.321,-0 -2.391,-1.079 -2.391,-2.404l-0,-4.242c-0,-0.712 -0.584,-1.291 -1.296,-1.291c-0.717,-0 -1.292,0.579 -1.292,1.291l-0,4.242c-0,2.75 2.233,4.983 4.979,4.983l12.217,0c2.75,0 4.983,-2.233 4.983,-4.983l0,-4.242c0,-0.712 -0.579,-1.291 -1.296,-1.291Zm-15.175,-3.709l3.613,-3.617l-0,11.08c-0,0.716 0.579,1.291 1.291,1.291c0.717,0 1.296,-0.575 1.296,-1.291l0,-11.08l3.613,3.617c0.504,0.504 1.325,0.504 1.833,0c0.504,-0.504 0.504,-1.325 0,-1.829l-5.825,-5.821l-0.225,-0.121l-0.196,-0.162l-0.496,-0.046l-0.495,0.046l-0.196,0.162l-0.221,0.121l-5.825,5.821c-0.504,0.504 -0.504,1.325 0,1.829c0.508,0.504 1.325,0.504 1.833,0Z" style="fill:#8197a1;fill-rule:nonzero;"/></svg>