<?xml version="1.0" encoding="UTF-8" standalone="no"?><!DOCTYPE svg PUBLIC "-//W3C//DTD SVG 1.1//EN" "http://www.w3.org/Graphics/SVG/1.1/DTD/svg11.dtd"><svg width="100%" height="100%" viewBox="0 0 20 16" version="1.1" xmlns="http://www.w3.org/2000/svg" xmlns:xlink="http://www.w3.org/1999/xlink" xml:space="preserve" xmlns:serif="http://www.serif.com/" style="fill-rule:evenodd;clip-rule:evenodd;stroke-linejoin:round;stroke-miterlimit:2;"><path d="M11.597,6.533l-0.842,-0.471l-0.471,0.838c0.213,0.771 -0.004,1.596 -0.562,2.158l-4.613,4.613c-0.862,0.862 -2.258,0.862 -3.12,-0c-0.863,-0.863 -0.863,-2.259 -0,-3.121l4.612,-4.613c0.3,-0.3 0.683,-0.508 1.1,-0.595l0.533,-0.805l-0.8,-0.533l-0.012,0.004c-0.675,0.142 -1.3,0.479 -1.788,0.967l-4.608,4.612c-1.383,1.405 -1.367,3.663 0.042,5.046c1.387,1.367 3.616,1.367 5.004,0l4.608,-4.608c0.917,-0.917 1.263,-2.25 0.917,-3.492Zm6.4,-5.487c-0.671,-0.667 -1.579,-1.046 -2.525,-1.046c-0.946,0 -1.858,0.375 -2.525,1.046l-4.608,4.608c-0.913,0.917 -1.263,2.25 -0.913,3.492l0.838,0.471l0.47,-0.838c-0.212,-0.771 0,-1.596 0.567,-2.158l4.613,-4.613c0.862,-0.862 2.258,-0.862 3.12,0c0.863,0.863 0.863,2.259 0,3.121l-4.612,4.613c-0.3,0.304 -0.683,0.508 -1.104,0.595l-0.529,0.809l0.67,0.541l0.142,-0.016c0.675,-0.142 1.296,-0.475 1.788,-0.967l4.608,-4.608c1.392,-1.396 1.392,-3.654 -0,-5.05Z" style="fill:#8197a1;fill-rule:nonzero;"/></svg>