<?xml version="1.0" encoding="UTF-8" standalone="no"?><!DOCTYPE svg PUBLIC "-//W3C//DTD SVG 1.1//EN" "http://www.w3.org/Graphics/SVG/1.1/DTD/svg11.dtd"><svg width="100%" height="100%" viewBox="0 0 29 33" version="1.1" xmlns="http://www.w3.org/2000/svg" xmlns:xlink="http://www.w3.org/1999/xlink" xml:space="preserve" xmlns:serif="http://www.serif.com/" style="fill-rule:evenodd;clip-rule:evenodd;stroke-linejoin:round;stroke-miterlimit:2;"><path d="M2.671,32.6c-0.383,-0 -0.771,-0.083 -1.133,-0.254c-0.95,-0.442 -1.538,-1.367 -1.538,-2.413l-0,-27.271c-0,-1.47 1.196,-2.662 2.663,-2.662l22.895,-0c1.471,-0 2.667,1.192 2.667,2.662l0,27.271c0,1.046 -0.587,1.971 -1.537,2.413c-0.938,0.441 -2.03,0.3 -2.83,-0.367l-9.745,-8.137l-9.742,8.137c-0.496,0.408 -1.092,0.621 -1.7,0.621Zm11.442,-11.767c0.608,0 1.212,0.209 1.708,0.617l9.629,8.042l-0.15,-26.567l-22.371,-0l0,26.442l9.479,-7.913c0.496,-0.412 1.1,-0.621 1.705,-0.621Z" style="fill:#000004;"/></svg>