<?xml version="1.0" encoding="UTF-8" standalone="no"?><!DOCTYPE svg PUBLIC "-//W3C//DTD SVG 1.1//EN" "http://www.w3.org/Graphics/SVG/1.1/DTD/svg11.dtd"><svg width="100%" height="100%" viewBox="0 0 24 20" version="1.1" xmlns="http://www.w3.org/2000/svg" xmlns:xlink="http://www.w3.org/1999/xlink" xml:space="preserve" xmlns:serif="http://www.serif.com/" style="fill-rule:evenodd;clip-rule:evenodd;stroke-linejoin:round;stroke-miterlimit:2;"><path d="M21.775,8.529l-17.921,0l4.796,-6.458c0.425,-0.575 0.308,-1.392 -0.271,-1.817c-0.575,-0.425 -1.387,-0.304 -1.817,0.267l-6.333,8.533l-0.037,0.104l-0.08,0.084l-0.112,0.587l0.112,0.584l0.08,0.083l0.037,0.108l6.333,8.529c0.255,0.342 0.65,0.525 1.046,0.525l0.771,-0.254c0.579,-0.429 0.696,-1.246 0.271,-1.821l-4.796,-6.458l17.921,-0c0.721,-0 1.3,-0.579 1.3,-1.296c-0,-0.717 -0.579,-1.3 -1.3,-1.3Z" style="fill:#009bdb;fill-rule:nonzero;"/></svg>