<?xml version="1.0" encoding="UTF-8" standalone="no"?><!DOCTYPE svg PUBLIC "-//W3C//DTD SVG 1.1//EN" "http://www.w3.org/Graphics/SVG/1.1/DTD/svg11.dtd"><svg width="100%" height="100%" viewBox="0 0 33 33" version="1.1" xmlns="http://www.w3.org/2000/svg" xmlns:xlink="http://www.w3.org/1999/xlink" xml:space="preserve" xmlns:serif="http://www.serif.com/" style="fill-rule:evenodd;clip-rule:evenodd;stroke-linejoin:round;stroke-miterlimit:2;"><path d="M28.263,32.704l-23.825,0c-2.446,0 -4.438,-1.991 -4.438,-4.437l-0,-23.825c-0,-2.45 1.992,-4.442 4.438,-4.442l23.825,0c2.445,0 4.437,1.992 4.437,4.442l0,23.825c0,2.446 -1.992,4.437 -4.437,4.437Zm-23.825,-29.775c-0.834,0 -1.513,0.679 -1.513,1.513l-0,23.825c-0,0.833 0.679,1.512 1.513,1.512l23.825,0c0.829,0 1.512,-0.679 1.512,-1.512l0,-23.825c0,-0.834 -0.683,-1.513 -1.512,-1.513l-23.825,0Zm12.625,20.113l-9.346,-0c-0.809,-0 -1.463,-0.655 -1.463,-1.463c0,-0.808 0.654,-1.462 1.463,-1.462l9.346,-0c0.804,-0 1.462,0.654 1.462,1.462c-0,0.808 -0.658,1.463 -1.462,1.463Zm8.158,-5.904l-17.504,-0c-0.809,-0 -1.463,-0.659 -1.463,-1.463c0,-0.813 0.654,-1.462 1.463,-1.462l17.504,-0c0.808,-0 1.462,0.649 1.462,1.462c0,0.804 -0.654,1.463 -1.462,1.463Zm-0,-5.909l-17.504,0c-0.809,0 -1.463,-0.654 -1.463,-1.462c0,-0.809 0.654,-1.463 1.463,-1.463l17.504,0c0.808,0 1.462,0.654 1.462,1.463c0,0.808 -0.654,1.462 -1.462,1.462Z" style="fill:#000004;"/></svg>