<?xml version="1.0" encoding="UTF-8" standalone="no"?><!DOCTYPE svg PUBLIC "-//W3C//DTD SVG 1.1//EN" "http://www.w3.org/Graphics/SVG/1.1/DTD/svg11.dtd"><svg width="100%" height="100%" viewBox="0 0 35 30" version="1.1" xmlns="http://www.w3.org/2000/svg" xmlns:xlink="http://www.w3.org/1999/xlink" xml:space="preserve" xmlns:serif="http://www.serif.com/" style="fill-rule:evenodd;clip-rule:evenodd;stroke-linejoin:round;stroke-miterlimit:2;"><path d="M29.717,29.758l-25.021,0c-2.588,0 -4.696,-2.108 -4.696,-4.695l-0,-20.367c-0,-2.592 2.108,-4.696 4.696,-4.696l25.021,0c2.587,0 4.7,2.104 4.7,4.696l-0,20.367c-0,2.587 -2.113,4.695 -4.7,4.695Zm1.775,-24.678l-12.15,11.653c-0.596,0.575 -1.371,0.867 -2.142,0.867c-0.762,-0 -1.529,-0.283 -2.125,-0.842l-12.146,-11.425l0,19.73c0,0.975 0.792,1.77 1.767,1.77l25.021,0c0.979,0 1.775,-0.795 1.775,-1.77l-0,-19.983Zm-1.998,-2.155l-24.798,0c-0.018,0 -0.036,0 -0.054,0.001l12.437,11.699l12.415,-11.7Z" style="fill:#000004;"/></svg>