<?xml version="1.0" encoding="UTF-8" standalone="no"?><!DOCTYPE svg PUBLIC "-//W3C//DTD SVG 1.1//EN" "http://www.w3.org/Graphics/SVG/1.1/DTD/svg11.dtd"><svg width="100%" height="100%" viewBox="0 0 29 35" version="1.1" xmlns="http://www.w3.org/2000/svg" xmlns:xlink="http://www.w3.org/1999/xlink" xml:space="preserve" xmlns:serif="http://www.serif.com/" style="fill-rule:evenodd;clip-rule:evenodd;stroke-linejoin:round;stroke-miterlimit:2;"><path d="M26.958,34.529l-25.495,0c-0.809,0 -1.463,-0.654 -1.463,-1.462l-0,-1.788c-0,-7.837 6.375,-14.212 14.213,-14.212c7.837,-0 14.212,6.375 14.212,14.212l0,1.788c0,0.808 -0.658,1.462 -1.467,1.462Zm-24.029,-2.925l22.571,0l0,-0.325c0,-6.225 -5.063,-11.287 -11.287,-11.287c-6.221,-0 -11.284,5.062 -11.284,11.287l0,0.325Zm11.284,-15.966c-4.313,-0 -7.821,-3.509 -7.821,-7.821c-0,-4.313 3.508,-7.817 7.821,-7.817c4.312,-0 7.82,3.504 7.82,7.817c0,4.312 -3.508,7.821 -7.82,7.821Zm-0,-12.713c-2.7,0 -4.892,2.196 -4.892,4.892c-0,2.7 2.192,4.896 4.892,4.896c2.7,-0 4.895,-2.196 4.895,-4.896c0,-2.696 -2.195,-4.892 -4.895,-4.892Z" style="fill:#000004;"/></svg>