<?xml version="1.0" encoding="UTF-8" standalone="no"?><!DOCTYPE svg PUBLIC "-//W3C//DTD SVG 1.1//EN" "http://www.w3.org/Graphics/SVG/1.1/DTD/svg11.dtd"><svg width="100%" height="100%" viewBox="0 0 28 19" version="1.1" xmlns="http://www.w3.org/2000/svg" xmlns:xlink="http://www.w3.org/1999/xlink" xml:space="preserve" xmlns:serif="http://www.serif.com/" style="fill-rule:evenodd;clip-rule:evenodd;stroke-linejoin:round;stroke-miterlimit:2;"><path d="M16.626,16.625l-8.846,0c-1.175,0 -2.129,-0.954 -2.129,-2.129l-0,-8.954c-0,-0.588 -0.48,-1.067 -1.067,-1.067c-0.592,0 -1.067,0.479 -1.067,1.067l0,8.954c0,2.35 1.913,4.262 4.263,4.262l8.846,0c0.591,0 1.066,-0.475 1.066,-1.066c0,-0.584 -0.475,-1.067 -1.066,-1.067Zm8.833,-2.612l-2.367,2.408l-0.375,0.154l-0.375,-0.154l-2.404,-2.413c-0.412,-0.416 -1.087,-0.416 -1.504,-0.004c-0.421,0.421 -0.421,1.096 -0.004,1.513l2.404,2.408c0.504,0.504 1.171,0.779 1.883,0.779c0.713,0 1.379,-0.275 1.888,-0.783l2.375,-2.408c0.412,-0.421 0.408,-1.096 -0.009,-1.509c-0.42,-0.412 -1.095,-0.408 -1.512,0.009Zm-14.908,-11.88l8.958,0c1.171,0 2.129,0.955 2.129,2.134l0,8.687c0,0.584 0.479,1.063 1.063,1.063c0.591,-0 1.066,-0.479 1.066,-1.063l0,-8.687c0,-2.354 -1.912,-4.267 -4.258,-4.267l-8.958,0c-0.588,0 -1.063,0.475 -1.063,1.067c0,0.587 0.475,1.066 1.063,1.066Zm-5.98,0l0.375,0.155l2.4,2.408l0.755,0.312l0.754,-0.312c0.416,-0.413 0.416,-1.092 -0,-1.504l-2.404,-2.409c-0.5,-0.504 -1.171,-0.787 -1.884,-0.783c-0.712,0 -1.379,0.279 -1.883,0.788l-2.379,2.408c-0.413,0.417 -0.404,1.092 0.012,1.504c0.421,0.417 1.092,0.413 1.509,-0.008l2.37,-2.404l0.375,-0.155Z" style="fill:#8197a1;fill-rule:nonzero;"/></svg>