<?xml version="1.0" encoding="UTF-8" standalone="no"?><!DOCTYPE svg PUBLIC "-//W3C//DTD SVG 1.1//EN" "http://www.w3.org/Graphics/SVG/1.1/DTD/svg11.dtd"><svg width="100%" height="100%" viewBox="0 0 14 23" version="1.1" xmlns="http://www.w3.org/2000/svg" xmlns:xlink="http://www.w3.org/1999/xlink" xml:space="preserve" xmlns:serif="http://www.serif.com/" style="fill-rule:evenodd;clip-rule:evenodd;stroke-linejoin:round;stroke-miterlimit:2;"><path d="M1.292,7.1c-0.709,0 -1.292,0.579 -1.292,1.296l0,12.566c0,0.717 0.583,1.292 1.292,1.292c0.716,0 1.296,-0.575 1.296,-1.292l-0,-12.566c-0,-0.717 -0.58,-1.296 -1.296,-1.296Zm11.204,-2.283c-0.713,-0 -1.296,0.579 -1.296,1.291l-0,14.854c-0,0.717 0.583,1.292 1.296,1.292c0.716,0 1.291,-0.575 1.291,-1.292l0,-14.854c0,-0.712 -0.575,-1.291 -1.291,-1.291Zm-5.6,-4.817c-0.717,-0 -1.292,0.579 -1.292,1.292l0,19.67c0,0.717 0.575,1.292 1.292,1.292c0.712,0 1.291,-0.575 1.291,-1.292l0,-19.67c0,-0.713 -0.579,-1.292 -1.291,-1.292Z" style="fill:#8197a1;fill-rule:nonzero;"/></svg>