<?xml version="1.0" encoding="UTF-8" standalone="no"?><!DOCTYPE svg PUBLIC "-//W3C//DTD SVG 1.1//EN" "http://www.w3.org/Graphics/SVG/1.1/DTD/svg11.dtd"><svg width="100%" height="100%" viewBox="0 0 35 35" version="1.1" xmlns="http://www.w3.org/2000/svg" xmlns:xlink="http://www.w3.org/1999/xlink" xml:space="preserve" xmlns:serif="http://www.serif.com/" style="fill-rule:evenodd;clip-rule:evenodd;stroke-linejoin:round;stroke-miterlimit:2;"><path d="M17.1,34.204c-9.429,0 -17.1,-7.671 -17.1,-17.1c0,-9.433 7.671,-17.104 17.1,-17.104c9.433,0 17.104,7.671 17.104,17.104c0,9.429 -7.671,17.1 -17.104,17.1Zm0,-31.279c-7.817,-0 -14.175,6.363 -14.175,14.179c-0,7.817 6.358,14.175 14.175,14.175c7.817,0 14.175,-6.358 14.175,-14.175c0,-7.816 -6.358,-14.179 -14.175,-14.179Zm-2.1,14.192c0,-0.592 0.2,-1.071 0.596,-1.442c0.4,-0.367 0.9,-0.554 1.5,-0.554c0.608,-0 1.112,0.187 1.512,0.554c0.396,0.371 0.596,0.85 0.596,1.442c0,0.583 -0.196,1.054 -0.592,1.421c-0.395,0.366 -0.899,0.545 -1.516,0.545c-0.608,0 -1.108,-0.179 -1.504,-0.545c-0.396,-0.367 -0.592,-0.838 -0.592,-1.421Zm5.967,-0c-0,-0.592 0.2,-1.071 0.596,-1.442c0.399,-0.367 0.9,-0.554 1.5,-0.554c0.608,-0 1.112,0.187 1.508,0.554c0.4,0.371 0.6,0.85 0.6,1.442c-0,0.583 -0.2,1.054 -0.592,1.421c-0.391,0.366 -0.9,0.545 -1.516,0.545c-0.609,0 -1.113,-0.179 -1.505,-0.545c-0.391,-0.367 -0.591,-0.838 -0.591,-1.421Zm-11.934,-0c0,-0.592 0.2,-1.071 0.596,-1.442c0.404,-0.367 0.9,-0.554 1.5,-0.554c0.609,-0 1.113,0.187 1.513,0.554c0.4,0.371 0.6,0.85 0.6,1.442c-0,0.583 -0.2,1.054 -0.592,1.421c-0.396,0.366 -0.904,0.545 -1.521,0.545c-0.608,0 -1.108,-0.179 -1.504,-0.545c-0.392,-0.367 -0.592,-0.838 -0.592,-1.421Z" style="fill:#000004;"/></svg>